<svg width="130" height="131" viewBox="0 0 130 131" fill="none" xmlns="http://www.w3.org/2000/svg">
<path d="M23.4802 0.280075L79.1732 0.137478C103.578 0.101378 129.94 -3.71802 129.097 31.5074C128.957 37.3338 128.582 49.2423 129.176 54.8388C128.915 64.6982 129.716 105.143 127.945 111.632C124.149 122.51 115.099 130.533 103.131 130.395C74.7972 130.067 45.0062 132.642 17.0312 129.003C11.7282 128.279 5.13422 119.904 2.54322 115.87C-2.86578 102.405 2.22823 40.4054 1.00123 23.4528C0.105225 11.074 11.4872 2.33918 23.4802 0.280075Z" fill="#F6F2DD"/>
<path d="M62.5122 71.6422C69.0912 55.1705 93.0752 53.5439 99.0972 70.8942C106.404 91.9462 88.3952 111.081 67.3942 112.12C47.5522 116.814 24.7602 108.012 29.0312 84.1552C36.0772 69.8632 43.0802 72.0352 56.7892 69.9142L58.3102 70.2842L62.5122 71.6422Z" fill="#21482C"/>
<path d="M62.5122 71.6422C69.0912 55.1705 93.0752 53.5439 99.0972 70.8942C106.404 91.9462 88.3952 111.081 67.3942 112.12C77.0912 106.996 87.0382 100.182 82.1572 86.7442C79.4022 79.1582 72.2842 75.5202 65.2022 72.4422L62.5122 71.6422Z" fill="#A3CC57"/>
<path d="M56.7892 69.9142L58.3102 70.2842L62.5122 71.6422L65.2022 72.4422C61.0442 76.1912 44.5292 83.6432 38.9192 85.7602C36.0222 85.2842 31.8392 84.4562 29.0312 84.1552C36.0772 69.8632 43.0802 72.0352 56.7892 69.9142Z" fill="#527C43"/>
<path d="M56.7892 69.9142C52.0152 55.5596 51.0372 49.773 56.8362 34.9937C64.2862 16.0044 96.7342 13.5568 89.6892 38.5238C84.4452 57.1115 60.8542 48.5464 58.3102 70.2842L56.7892 69.9142Z" fill="#21482C"/>
</svg>
